<mxfile host="app.diagrams.net" agent="Mozilla/5.0 (Windows NT 10.0; Win64; x64) AppleWebKit/537.36 (KHTML, like Gecko) Chrome/132.0.0.0 Safari/537.36 Edg/132.0.0.0" version="26.0.10">
  <diagram name="Page-1" id="Xh3mkgjwqd65aYn8KOnx">
    <mxGraphModel dx="1112" dy="435" grid="1" gridSize="10" guides="1" tooltips="1" connect="1" arrows="1" fold="1" page="1" pageScale="1" pageWidth="850" pageHeight="1100" math="0" shadow="0">
      <root>
        <mxCell id="0" />
        <mxCell id="1" parent="0" />
        <mxCell id="LywyaxbltV9Rz2-kyhSX-22" value="&lt;b style=&quot;font-size: 14px;&quot;&gt;Main Host - Whole Network (from class B)&lt;br&gt;***managed by docker engine***&lt;br&gt;&lt;/b&gt;" style="rounded=0;whiteSpace=wrap;html=1;verticalAlign=top;align=left;" parent="1" vertex="1">
          <mxGeometry y="320" width="850" height="780" as="geometry" />
        </mxCell>
        <mxCell id="LywyaxbltV9Rz2-kyhSX-23" value="&lt;b style=&quot;font-size: 13px;&quot;&gt;Container 1 - Scenario 1&lt;br&gt;172.16.0.0/30&lt;br&gt;&lt;/b&gt;" style="rounded=0;whiteSpace=wrap;html=1;fillColor=#fff2cc;strokeColor=#d6b656;verticalAlign=top;align=left;" parent="1" vertex="1">
          <mxGeometry x="10" y="510" width="830" height="210" as="geometry" />
        </mxCell>
        <mxCell id="LywyaxbltV9Rz2-kyhSX-24" value="&lt;b&gt;Subnet 1&lt;br&gt;172.16.1.0/29&lt;br&gt;VLAN 010&lt;/b&gt;" style="rounded=0;whiteSpace=wrap;html=1;fillColor=#d5e8d4;strokeColor=#82b366;verticalAlign=top;align=left;" parent="1" vertex="1">
          <mxGeometry x="10" y="720" width="420" height="350" as="geometry" />
        </mxCell>
        <mxCell id="LywyaxbltV9Rz2-kyhSX-1" value="" style="fontColor=#0066CC;verticalAlign=top;verticalLabelPosition=bottom;labelPosition=center;align=center;html=1;outlineConnect=0;fillColor=#CCCCCC;strokeColor=#6881B3;gradientColor=none;gradientDirection=north;strokeWidth=2;shape=mxgraph.networks.virtual_pc;" parent="1" vertex="1">
          <mxGeometry x="50" y="880" width="115" height="85" as="geometry" />
        </mxCell>
        <mxCell id="LywyaxbltV9Rz2-kyhSX-25" value="&lt;b&gt;Subnet 2&lt;br&gt;172.16.2.0/29&lt;br&gt;VLAN 020&lt;/b&gt;" style="rounded=0;whiteSpace=wrap;html=1;fillColor=#e1d5e7;strokeColor=#9673a6;verticalAlign=top;align=left;" parent="1" vertex="1">
          <mxGeometry x="430" y="720" width="410" height="350" as="geometry" />
        </mxCell>
        <mxCell id="LywyaxbltV9Rz2-kyhSX-2" value="" style="fontColor=#0066CC;verticalAlign=top;verticalLabelPosition=bottom;labelPosition=center;align=center;html=1;outlineConnect=0;fillColor=#CCCCCC;strokeColor=#6881B3;gradientColor=none;gradientDirection=north;strokeWidth=2;shape=mxgraph.networks.virtual_pc;" parent="1" vertex="1">
          <mxGeometry x="670" y="870" width="115" height="85" as="geometry" />
        </mxCell>
        <mxCell id="LywyaxbltV9Rz2-kyhSX-3" value="" style="fontColor=#0066CC;verticalAlign=top;verticalLabelPosition=bottom;labelPosition=center;align=center;html=1;outlineConnect=0;fillColor=#CCCCCC;strokeColor=#6881B3;gradientColor=none;gradientDirection=north;strokeWidth=2;shape=mxgraph.networks.switch;" parent="1" vertex="1">
          <mxGeometry x="190" y="710" width="100" height="30" as="geometry" />
        </mxCell>
        <mxCell id="LywyaxbltV9Rz2-kyhSX-4" value="" style="fontColor=#0066CC;verticalAlign=top;verticalLabelPosition=bottom;labelPosition=center;align=center;html=1;outlineConnect=0;fillColor=#CCCCCC;strokeColor=#6881B3;gradientColor=none;gradientDirection=north;strokeWidth=2;shape=mxgraph.networks.switch;" parent="1" vertex="1">
          <mxGeometry x="550" y="710" width="100" height="30" as="geometry" />
        </mxCell>
        <mxCell id="LywyaxbltV9Rz2-kyhSX-6" value="" style="fontColor=#0066CC;verticalAlign=top;verticalLabelPosition=bottom;labelPosition=center;align=center;html=1;outlineConnect=0;fillColor=#CCCCCC;strokeColor=#6881B3;gradientColor=none;gradientDirection=north;strokeWidth=2;shape=mxgraph.networks.router;" parent="1" vertex="1">
          <mxGeometry x="370" y="500" width="100" height="30" as="geometry" />
        </mxCell>
        <mxCell id="LywyaxbltV9Rz2-kyhSX-7" value="" style="fontColor=#0066CC;verticalAlign=top;verticalLabelPosition=bottom;labelPosition=center;align=center;html=1;outlineConnect=0;fillColor=#CCCCCC;strokeColor=#6881B3;gradientColor=none;gradientDirection=north;strokeWidth=2;shape=mxgraph.networks.firewall;" parent="1" vertex="1">
          <mxGeometry x="370" y="280" width="100" height="100" as="geometry" />
        </mxCell>
        <mxCell id="LywyaxbltV9Rz2-kyhSX-8" value="" style="html=1;outlineConnect=0;fillColor=#CCCCCC;strokeColor=#6881B3;gradientColor=none;gradientDirection=north;strokeWidth=2;shape=mxgraph.networks.cloud;fontColor=#ffffff;" parent="1" vertex="1">
          <mxGeometry x="375" y="80" width="90" height="50" as="geometry" />
        </mxCell>
        <mxCell id="LywyaxbltV9Rz2-kyhSX-9" value="" style="endArrow=none;html=1;rounded=0;entryX=0.5;entryY=1;entryDx=0;entryDy=0;entryPerimeter=0;exitX=0.5;exitY=0;exitDx=0;exitDy=0;exitPerimeter=0;" parent="1" source="LywyaxbltV9Rz2-kyhSX-7" target="LywyaxbltV9Rz2-kyhSX-8" edge="1">
          <mxGeometry width="50" height="50" relative="1" as="geometry">
            <mxPoint x="350" y="380" as="sourcePoint" />
            <mxPoint x="400" y="330" as="targetPoint" />
          </mxGeometry>
        </mxCell>
        <mxCell id="LywyaxbltV9Rz2-kyhSX-10" value="" style="endArrow=none;html=1;rounded=0;entryX=0.5;entryY=1;entryDx=0;entryDy=0;entryPerimeter=0;exitX=0.5;exitY=0;exitDx=0;exitDy=0;exitPerimeter=0;strokeWidth=4;" parent="1" source="LywyaxbltV9Rz2-kyhSX-6" target="LywyaxbltV9Rz2-kyhSX-7" edge="1">
          <mxGeometry width="50" height="50" relative="1" as="geometry">
            <mxPoint x="350" y="380" as="sourcePoint" />
            <mxPoint x="400" y="330" as="targetPoint" />
          </mxGeometry>
        </mxCell>
        <mxCell id="LywyaxbltV9Rz2-kyhSX-11" value="" style="endArrow=none;html=1;rounded=0;entryX=0.1;entryY=1;entryDx=0;entryDy=0;entryPerimeter=0;exitX=0.5;exitY=0;exitDx=0;exitDy=0;exitPerimeter=0;" parent="1" source="LywyaxbltV9Rz2-kyhSX-3" target="LywyaxbltV9Rz2-kyhSX-6" edge="1">
          <mxGeometry width="50" height="50" relative="1" as="geometry">
            <mxPoint x="350" y="720" as="sourcePoint" />
            <mxPoint x="400" y="670" as="targetPoint" />
          </mxGeometry>
        </mxCell>
        <mxCell id="LywyaxbltV9Rz2-kyhSX-12" value="" style="endArrow=none;html=1;rounded=0;entryX=0.9;entryY=1;entryDx=0;entryDy=0;entryPerimeter=0;exitX=0.5;exitY=0;exitDx=0;exitDy=0;exitPerimeter=0;" parent="1" source="LywyaxbltV9Rz2-kyhSX-4" target="LywyaxbltV9Rz2-kyhSX-6" edge="1">
          <mxGeometry width="50" height="50" relative="1" as="geometry">
            <mxPoint x="350" y="720" as="sourcePoint" />
            <mxPoint x="400" y="670" as="targetPoint" />
          </mxGeometry>
        </mxCell>
        <mxCell id="LywyaxbltV9Rz2-kyhSX-13" value="" style="endArrow=none;html=1;rounded=0;entryX=0.1;entryY=1;entryDx=0;entryDy=0;entryPerimeter=0;exitX=0.5;exitY=0;exitDx=0;exitDy=0;exitPerimeter=0;" parent="1" source="LywyaxbltV9Rz2-kyhSX-1" target="LywyaxbltV9Rz2-kyhSX-3" edge="1">
          <mxGeometry width="50" height="50" relative="1" as="geometry">
            <mxPoint x="350" y="830" as="sourcePoint" />
            <mxPoint x="400" y="780" as="targetPoint" />
          </mxGeometry>
        </mxCell>
        <mxCell id="LywyaxbltV9Rz2-kyhSX-14" value="" style="endArrow=none;html=1;rounded=0;entryX=0.9;entryY=1;entryDx=0;entryDy=0;entryPerimeter=0;exitX=0.5;exitY=0;exitDx=0;exitDy=0;exitPerimeter=0;" parent="1" source="LywyaxbltV9Rz2-kyhSX-2" target="LywyaxbltV9Rz2-kyhSX-4" edge="1">
          <mxGeometry width="50" height="50" relative="1" as="geometry">
            <mxPoint x="350" y="830" as="sourcePoint" />
            <mxPoint x="400" y="780" as="targetPoint" />
          </mxGeometry>
        </mxCell>
        <mxCell id="LywyaxbltV9Rz2-kyhSX-15" value="Work Station 1&lt;br&gt;172.16.1.3" style="text;html=1;align=center;verticalAlign=middle;whiteSpace=wrap;rounded=0;fontSize=15;" parent="1" vertex="1">
          <mxGeometry x="37.5" y="970" width="140" height="80" as="geometry" />
        </mxCell>
        <mxCell id="LywyaxbltV9Rz2-kyhSX-16" value="Work Station 2&lt;br&gt;172.16.2.3" style="text;html=1;align=center;verticalAlign=middle;whiteSpace=wrap;rounded=0;fontSize=15;" parent="1" vertex="1">
          <mxGeometry x="657.5" y="965" width="140" height="80" as="geometry" />
        </mxCell>
        <mxCell id="LywyaxbltV9Rz2-kyhSX-17" value="Switch 1 (Acc L3)&lt;br&gt;172.16.1.2" style="text;html=1;align=center;verticalAlign=middle;whiteSpace=wrap;rounded=0;fontSize=15;" parent="1" vertex="1">
          <mxGeometry x="180" y="740" width="140" height="80" as="geometry" />
        </mxCell>
        <mxCell id="LywyaxbltV9Rz2-kyhSX-18" value="Switch 2 (Acc L3)&lt;br&gt;172.16.2.2" style="text;html=1;align=center;verticalAlign=middle;whiteSpace=wrap;rounded=0;fontSize=15;" parent="1" vertex="1">
          <mxGeometry x="520" y="740" width="140" height="80" as="geometry" />
        </mxCell>
        <mxCell id="LywyaxbltV9Rz2-kyhSX-19" value="Router 1&lt;br&gt;172.16.0.2" style="text;html=1;align=center;verticalAlign=middle;whiteSpace=wrap;rounded=0;fontSize=15;" parent="1" vertex="1">
          <mxGeometry x="355" y="530" width="140" height="80" as="geometry" />
        </mxCell>
        <mxCell id="LywyaxbltV9Rz2-kyhSX-20" value="Firewall 1&lt;br&gt;172.16.0.6" style="text;html=1;align=center;verticalAlign=middle;whiteSpace=wrap;rounded=0;fontSize=15;" parent="1" vertex="1">
          <mxGeometry x="260" y="370" width="140" height="80" as="geometry" />
        </mxCell>
        <mxCell id="LywyaxbltV9Rz2-kyhSX-21" value="External Modem&lt;br&gt;(Outside main host)" style="text;html=1;align=center;verticalAlign=middle;whiteSpace=wrap;rounded=0;fontSize=15;" parent="1" vertex="1">
          <mxGeometry x="250" y="120" width="140" height="80" as="geometry" />
        </mxCell>
        <mxCell id="X-Ir4ykL-uKakGHwIyS2-2" value="" style="shape=process;whiteSpace=wrap;html=1;backgroundOutline=1;" parent="1" vertex="1">
          <mxGeometry x="495" y="120" width="305" height="150" as="geometry" />
        </mxCell>
        <mxCell id="X-Ir4ykL-uKakGHwIyS2-3" value="&lt;h1 style=&quot;margin-top: 0px;&quot;&gt;FW allows:&lt;/h1&gt;&lt;p&gt;&lt;span style=&quot;background-color: transparent; color: light-dark(rgb(0, 0, 0), rgb(255, 255, 255));&quot;&gt;- HTTPS packets coming from VLAN 10;&lt;br&gt;&lt;/span&gt;&lt;span style=&quot;background-color: transparent; color: light-dark(rgb(0, 0, 0), rgb(255, 255, 255));&quot;&gt;- SSH packets coming from VLAN 20;&lt;br&gt;- DNS allowed;&lt;br&gt;- Ping allowed (Traceroute only from firewall).&lt;/span&gt;&lt;/p&gt;" style="text;html=1;whiteSpace=wrap;overflow=hidden;rounded=0;" parent="1" vertex="1">
          <mxGeometry x="530" y="120" width="220" height="150" as="geometry" />
        </mxCell>
      </root>
    </mxGraphModel>
  </diagram>
</mxfile>
